<svg id="Component_40_1" data-name="Component 40 – 1" xmlns="http://www.w3.org/2000/svg" xmlns:xlink="http://www.w3.org/1999/xlink" width="117.943" height="86.587" viewBox="0 0 117.943 86.587">
  <defs>
    <clipPath id="clip-path">
      <rect id="Rectangle_1955" data-name="Rectangle 1955" width="117.943" height="86.587" fill="#ef5488"/>
    </clipPath>
  </defs>
  <g id="Group_1486" data-name="Group 1486" clip-path="url(#clip-path)">
    <path id="Path_11536" data-name="Path 11536" d="M768.43,130.824c-.609-2.066-1.267-4.249-1.956-6.491a8.31,8.31,0,0,0,1.521-7.594c-1.578-5.43-3.041-10.454-4.474-15.359l-.044-.152c-.64-2.195-1.36-4.665-3.935-5.482A6.413,6.413,0,0,0,754.314,85.6a6.2,6.2,0,0,0-4.1,1.545l-.136.113a6.306,6.306,0,0,0-.932,8.478c-2.681.836-3.437,3.56-4.109,5.978-.076.271-.15.54-.226.8q-1.98,6.8-3.957,13.6a14.052,14.052,0,0,0-.411,1.7,8.182,8.182,0,0,0,1.746,6.524c-.624,2.064-1.271,4.213-1.923,6.389a3,3,0,0,0,1.628,3.83,2.706,2.706,0,0,0,1.074.239l1.51,0c.944,0,1.912,0,2.885.009l.009,5.361.014.832c-.009.773-.014,1.586-.016,2.415,0,1.446.094,2.548,1.357,3.565a3.076,3.076,0,0,0,1.936.662q.267,0,.522.012c.232.006.452.012.671.012a3.945,3.945,0,0,0,2.475-.66,3.28,3.28,0,0,0,1.973.643h.131l.452,0,.437,0c.272,0,.632,0,1-.028a3.252,3.252,0,0,0,2.8-2.357,6.644,6.644,0,0,0,.174-1.878v-.1c0-2.793,0-5.646,0-8.486l3.758,0a5.416,5.416,0,0,0,1.447-.141,2.971,2.971,0,0,0,1.914-3.825M748.854,89.647l.005,0h.008l-.014,0m.042.012,0,.005,0,.005a.019.019,0,0,0-.005-.01M766.14,132.2c-.127.17-.445.256-.946.256h-.009l-2.169,0q-1.822,0-3.643,0a.383.383,0,0,0-.383.383c0,3.494,0,7.132,0,11.123a1.354,1.354,0,0,1-.648,1.277,4.644,4.644,0,0,1-1.249.116,3.8,3.8,0,0,1-1.166-.113c-.56-.3-.66-.684-.66-1.606,0-3.392,0-6.927,0-10.809a.373.373,0,0,0-.373-.373h-1.086a.385.385,0,0,0-.385.385v2.746l-.029.016v.2c0,2.967,0,5.667,0,8.256a1.593,1.593,0,0,1-.084.592c-.216.51-.634.708-1.49.708-.18,0-.364-.008-.543-.015s-.351-.015-.518-.015h-.082c-.932,0-.97-1.241-.972-1.383-.011-1.233-.016-2.382-.014-3.51a.823.823,0,0,0,0-.408v-7.188a.384.384,0,0,0-.383-.383q-1.837,0-3.671,0l-2.176,0h-.027c-.471,0-.773-.085-.9-.254s-.122-.517.028-1.013c1.536-5.089,2.952-9.772,4.328-14.313a.763.763,0,0,0,.032-.169l.31-1.018c.307-.906.587-1.842.832-2.782l.31-.969c.39-1.26.781-2.542,1.163-3.813a2.59,2.59,0,0,0,.11-.711c.011-.863.006-1.74-.015-2.608a.345.345,0,0,0-.68-.093l-2.266,7.446-1.078,3.512c-.836,2.717-1.515,4.94-2.015,6.612a5.7,5.7,0,0,1-.858-4.01,13.711,13.711,0,0,1,.395-1.605q1.925-6.623,3.846-13.246l.019-.066c.18-.624.374-1.263.575-1.9.029-.092.058-.187.088-.283.41-1.332.874-2.842,2.225-3.224a6.5,6.5,0,0,1,1.48-.107l2.227,0c1.471,0,2.966,0,4.441.01,2.012.009,2.548,1.833,3.067,3.6l.014.051c1.526,5.186,3.053,10.418,4.539,15.55a8.566,8.566,0,0,1,.326,1.514,5.883,5.883,0,0,1-.893,3.717l-5.354-17.569v-.167l-.231-.078-.02-.006-.032-.011h-.024l-.042,0H759.3l-.057.027a.382.382,0,0,0-.108.07.37.37,0,0,0-.118.289c.033,1.114.039,1.861.018,2.22a2.445,2.445,0,0,0,.076.962l7,23.159c.153.506.165.853.036,1.027m-7.014-40.733h0l0,0h0m-.25.26,0,0h0Zm-7.737-4.638,0,.01a.082.082,0,0,0-.006-.014l0,0m3.206.856A4.062,4.062,0,1,1,750.283,92a4.067,4.067,0,0,1,4.062-4.062m-4.5.229v0l0,0,0,0m-.615.806.008,0a.058.058,0,0,0-.018-.008l.009,0m-.053.009h0l0,0,0,0" transform="translate(-677.114 -78.315)" fill="#ef5488"/>
    <path id="Path_11537" data-name="Path 11537" d="M26.852,20.569a15.905,15.905,0,0,0-.069-1.74,7.977,7.977,0,0,0-7.242-7.177h-.3a4.241,4.241,0,0,0,.271-.391,7.426,7.426,0,0,0,.432-7.047A7.156,7.156,0,0,0,14.428.088,7.989,7.989,0,0,0,13.261,0,7.206,7.206,0,0,0,6.684,4.253a7.311,7.311,0,0,0,.707,7.4,7.53,7.53,0,0,0-5.521,2.9A8.765,8.765,0,0,0,.006,19.859C0,21.728,0,26.97.011,35.44A13.406,13.406,0,0,0,.1,37.186a7.548,7.548,0,0,0,5.116,6.4q0,10.924,0,21.847a3.69,3.69,0,0,0,3.616,3.889l.891,0c.533,0,1.006,0,1.405-.009a3.684,3.684,0,0,0,2.309-.726,3.233,3.233,0,0,0,1.706.712c.217.018.761.027,1.663.027l.944,0a4.85,4.85,0,0,0,1.081-.074,3.746,3.746,0,0,0,2.688-2.711,6.042,6.042,0,0,0,.123-1.464c-.005-1.239,0-2.476.011-3.676a3.937,3.937,0,0,0-.029-.514A4.988,4.988,0,0,1,21.631,60c.014-.205.028-.417.029-.646.009-2.369.005-4.555,0-6.87,0-2.764-.009-5.62.009-8.9,3.2-1.064,5.174-4.012,5.18-7.745.007-5.173.008-10.311,0-15.271M18.664,8.087h0l-.009,0h.008m-.027,5.2a.045.045,0,0,1,.009.009.046.046,0,0,0-.013-.013l0,0M13.322,2.514A4.816,4.816,0,1,1,8.506,7.33a4.822,4.822,0,0,1,4.816-4.816M2.5,17.637v0l0,0a.009.009,0,0,0,.005,0m11.91,50.224,0,0a.073.073,0,0,0,.011-.012.033.033,0,0,1-.007.009m9.934-32c0,2.189-1.066,4.621-3.424,5.321l0-2.128V37.69L20.9,37.3l.014-1.719,0-.721.005-1.51V21.181a.384.384,0,0,0-.384-.384h-.994a.385.385,0,0,0-.385.385l0,14.189L19.151,37.3l.005.854V62.667l-.012,2.765c0,.58-.361,1.385-1.027,1.385h-.012l-.437,0c-.356,0-.688.005-.98.01-.241,0-.46.008-.656.008s-.366,0-.492-.014c-.982-.074-1.088-1.122-1.088-1.568q0-11.424,0-22.849a.392.392,0,0,0-.391-.391H12.82a.392.392,0,0,0-.391.391q0,11.319,0,22.638c0,1.26-.386,1.777-1.328,1.783q-1.112.008-2.223.01a1.132,1.132,0,0,1-1.046-.769,2.97,2.97,0,0,1-.1-.982q0-21.951,0-43.9a.384.384,0,0,0-.383-.384H6.323a.384.384,0,0,0-.383.383V41.169c-1.919-.558-3.182-2.368-3.406-4.918-.023-.26-.035-.666-.037-1.207-.013-4.782-.009-9.632.01-14.415a12.1,12.1,0,0,1,.086-1.646,5.537,5.537,0,0,1,4.174-4.718,8.6,8.6,0,0,1,1.6-.1H9.881c2.555,0,5.1,0,7.55-.011l.951.006.214,0h.35a5.962,5.962,0,0,1,.676.028,5.482,5.482,0,0,1,4.613,4.536,6.946,6.946,0,0,1,.1,1.328c.009,5.137.009,10.457,0,15.812" transform="translate(0)" fill="#ef5488"/>
    <path id="Path_11538" data-name="Path 11538" d="M384.72,361.359c-1.364-3.739-2.771-7.606-4.3-11.822-.333-.915-.534-1.445-.617-1.62a6.092,6.092,0,0,0-5.565-3.359,6.616,6.616,0,0,0-.357-3.782,2.619,2.619,0,0,0-.274-.66,6.752,6.752,0,0,0-3.8-3.464,7.6,7.6,0,0,0-2.58-.452,6.152,6.152,0,0,0-2.812.634l-.229.087-.018.009a7.236,7.236,0,0,0-3.258,3.329,7.32,7.32,0,0,0-.566,4.333,7.554,7.554,0,0,0-5.807,7.537q0,6.359,0,12.718a11.782,11.782,0,0,0,.1,1.752,7.854,7.854,0,0,0,4.582,5.867q0,2.561,0,5.123c0,4.156-.009,8.456.005,12.683a3.887,3.887,0,0,0,3.845,3.871c.176.007.5.009,1,.009q.6,0,1.518-.006a4.21,4.21,0,0,0,1.864-.425,3.319,3.319,0,0,0,1.352.4c.431.026.888.031,1.32.031h.82c.243,0,.561,0,.88.009l.117,0a3.873,3.873,0,0,0,2.612-.963,4.264,4.264,0,0,0,.423-.443,3.12,3.12,0,0,0,.687-1.334,4.34,4.34,0,0,0,.047-1.12c0-.075-.007-.149-.009-.223-.008-.255,0-.519,0-.775,0-.167.007-.333.007-.5l0-29.7c1.3,3.576,2.616,7.2,3.916,10.79a1.151,1.151,0,0,1,.067.382q.008,2.207.023,4.418c.032,5.487.066,11.161-.074,16.723a.4.4,0,0,0-.127.283l-.07,1.991v.07l.008.022a.39.39,0,0,0,.018.066.355.355,0,0,0,.031.066c.007.013.014.024.02.033l.006.008.005.008a.419.419,0,0,0,.04.046.3.3,0,0,0,.03.028.366.366,0,0,0,.067.047.458.458,0,0,0,.081.037l.016.005.017,0a.408.408,0,0,0,.106.014l1.436.005h.089l.049-.024a.42.42,0,0,0,.089-.047l.071-.037.03-.06,0-.005.025-.048a.374.374,0,0,0,.037-.111.363.363,0,0,0,.007-.072c0-.36-.009-.719-.018-1.054l-.015-.529c0-.032,0-.065,0-.1s-.005-.078,0-.117c0-.011,0-.023,0-.035a.674.674,0,0,0-.066-.371.7.7,0,0,0-.075-.108l-.005-.007a.752.752,0,0,1-.005-.081l0-.043c0-.062-.008-.124-.014-.185s-.01-.1-.013-.157q-.013-.368-.024-.735c-.013-.472-.02-.888-.024-1.272,0-.071,0-.14,0-.211,0-2.734-.005-8.7,0-17.742a7.669,7.669,0,0,0,3.268-9.642M374.4,351.406h-1.114a.394.394,0,0,0-.394.392c-.009,1.139-.014,2.265-.014,3.347,0,.791,0,1.5.006,2.183.01,1.893.006,3.819,0,5.681,0,1.432-.008,2.913,0,4.368a1.306,1.306,0,0,0,.014.163.749.749,0,0,1,.009.1v.009c-.038,1.158-.038,2.333,0,3.49v.01a1.178,1.178,0,0,1-.012.188c-.006.063-.013.128-.014.2v18.44a1.45,1.45,0,0,1-.429,1.277,2.653,2.653,0,0,1-.766.111c-.624-.011-1.271-.017-1.922-.017h-.384a1.047,1.047,0,0,1-.882-.336,1.639,1.639,0,0,1-.255-1.01q0-9.531,0-19.061a.385.385,0,0,0-.385-.385l-.873.02a.387.387,0,0,0-.368.375c-.029,1.6-.038,3.22-.025,4.8.015,2,.007,4.029,0,5.994-.005,1.145-.009,2.328-.009,3.492a.416.416,0,0,0,.025.141c-.019,1.636-.028,3.294-.027,4.929a.947.947,0,0,1-1.047,1.035h-.012c-.406,0-.813-.005-1.218-.005-.341,0-.682,0-1.023,0h-.013a1.033,1.033,0,0,1-.837-.333,1.451,1.451,0,0,1-.272-.934V351.789a.384.384,0,0,0-.384-.383h-.848a.381.381,0,0,0-.381.38l-.014,18.056a4.807,4.807,0,0,1-3.054-3.539,7.361,7.361,0,0,1-.107-1.448l0-12.662c0-2.267,1.6-4.712,4.192-4.79a7.088,7.088,0,0,0,11.447-.01c.113,0,.226-.007.336-.007,1.214,0,2.836.248,3.673,1.427a6.826,6.826,0,0,1,.656,1.463c1.422,3.921,2.925,8.058,4.467,12.3A4.555,4.555,0,0,1,380.724,368l-5.934-16.325a.419.419,0,0,0-.391-.272m-8.437-12.8a.024.024,0,0,1-.019.009.027.027,0,0,0,.019-.009m-2.289,2.232a4.313,4.313,0,0,1,3.576-1.957,4.389,4.389,0,0,1,.947.106,4.337,4.337,0,0,1,3.233,2.842l.157.6a4.621,4.621,0,0,1-.989,3.659,4.31,4.31,0,0,1-3.263,1.524.419.419,0,0,0-.141.03l-.65-.087-.346-.061a4.423,4.423,0,0,1-2.931-2.606,4.258,4.258,0,0,1,.407-4.054" transform="translate(-324.364 -307.588)" fill="#ef5488"/>
    <path id="Path_11539" data-name="Path 11539" d="M1159.76,347.595a.107.107,0,0,1-.055-.057,7.83,7.83,0,0,0-9.679-4.63l-.335.122a7.771,7.771,0,0,0-4.127,3.563l-.083.157-.356.752a.158.158,0,0,1-.054.062l-.249.171-.3.142-.11.11a1.946,1.946,0,0,0-.486.529,1.767,1.767,0,0,0-.379.854l-.072.253a2.564,2.564,0,0,0,2.2,2.884.022.022,0,0,0,.013,0,.025.025,0,0,0,.017-.016.021.021,0,0,0,0-.014,7.02,7.02,0,0,1-.052-4.02l.206-.617.2-.529.125-.174.2-.383.167-.252.259-.365.145-.209.3-.344.188-.167.329-.336.161-.153a.563.563,0,0,0,.255-.177l.234-.17a7.03,7.03,0,0,1,10.474,3.108,6.664,6.664,0,0,1,.2,4.768.024.024,0,0,0,0,.011v0a.014.014,0,0,0,0,.008.026.026,0,0,0,.015.012l.009,0h0a2.567,2.567,0,0,0,.635-4.894m-15.56,1.856a.031.031,0,0,1,0-.008.046.046,0,0,0,.008.014l0-.006m5.078-5.826a.017.017,0,0,1,0-.008h0a.036.036,0,0,0,0,.009" transform="translate(-1046.16 -313.381)" fill="#ef5488"/>
    <path id="Path_11540" data-name="Path 11540" d="M1134.169,375.647a16.1,16.1,0,0,0-.066-1.743,7.232,7.232,0,0,0-5.8-6.061c-.065-.014-.136-.026-.212-.036a6.476,6.476,0,0,0,.1-6.058,6.307,6.307,0,0,0-5.291-3.486c-.141-.009-.284-.014-.425-.014a6.443,6.443,0,0,0-5.328,2.836,6.35,6.35,0,0,0-.656,5.992,6.6,6.6,0,0,0,.325.675,6.529,6.529,0,0,0-5.756,4.962,7.767,7.767,0,0,0-.285,1.948c-.007,1.4-.006,5.5,0,12.9v.017l0,.016a8.274,8.274,0,0,0,.316,1.593,6.49,6.49,0,0,0,1.342,2.522,4.468,4.468,0,0,0,.818.86,6.269,6.269,0,0,0,1.646,1.071l.01,17.385.3.835a1.149,1.149,0,0,0,.26.465,3.1,3.1,0,0,0,.794,1,3.375,3.375,0,0,0,2.353,1c.3.007.62.011.946.011.568,0,1.176-.011,1.808-.033a2.631,2.631,0,0,0,1.088-.313,4.967,4.967,0,0,0,2.115.366c.247,0,.492-.007.729-.014.2-.006.4-.012.582-.013a5.18,5.18,0,0,0,1.193-.1,4.03,4.03,0,0,0,2.947-3.993c0-5.267,0-10.688,0-16.57a5.758,5.758,0,0,0,3.6-3.6,7.667,7.667,0,0,0,.532-2.576c.021-1.777.024-5.646.01-11.829m-2.836-4.011h0a.017.017,0,0,1-.005-.013.019.019,0,0,0,.006.013m-10.808-6.125a8.815,8.815,0,0,0,5.552-2.266,3.888,3.888,0,0,1-2.916,5.266,3.848,3.848,0,0,1-4.55-3.353,5.093,5.093,0,0,0,1.914.352m-7.829,15.916a.023.023,0,0,1-.023-.023l.012-3.3a.023.023,0,0,1,.023-.023l1.023,0a.023.023,0,0,1,.023.023l-.012,3.3a.023.023,0,0,1-.023.023Zm4.944,17.286,0-2.667,1.639,0,0,2.667Zm14.277-11.5a4.234,4.234,0,0,1-2.911,4.071q0-5.539,0-11.072c0-.454,0-.917-.009-1.408-.008-.982-.018-2,.008-2.978V375.8l0-.02a.369.369,0,0,0-.1-.215.374.374,0,0,0-.215-.107l-.022,0h-.023l-.872.02a.483.483,0,0,0-.493.525c.028.669.038,1.318.031,1.93-.05,3.757-.041,7.579-.031,11.275,0,1.74.008,3.536.007,5.308h-2.785a.383.383,0,0,0-.383.383v4.946a.414.414,0,0,0,.414.414l2.771,0c-.018,3.451-.021,6.912-.01,10.3a1.2,1.2,0,0,1-.629.917,1.27,1.27,0,0,1-.556.083l-.895,0q-.693,0-1.385,0c-.3,0-.5-.656-.5-1.106,0-6.156-.01-12.247-.024-18.1a.386.386,0,0,0-.385-.386H1122a.389.389,0,0,0-.389.39c.006,1.658.008,3.412.008,5.214,0,3.254-.008,6.564-.017,9.764q-.005,1.616-.009,3.232c0,.657-.26.994-.77,1-.575.01-1.156.016-1.729.018h-.014c-.809,0-1.117-.155-1.368-.69l-.071-.189-.005-10.445h2.808a.384.384,0,0,0,.383-.383V394.9a.384.384,0,0,0-.383-.383h-2.81q0-2.882.007-5.764c.007-4.227.014-8.6-.011-12.9v-.012a.385.385,0,0,0-.373-.366l-.944-.017a.379.379,0,0,0-.379.367v.014c0,2.092.006,4.219.012,6.276.006,1.917.012,3.9.012,5.847v3.16l-.009.168a2.609,2.609,0,0,1-.507-.253l-.554-.383-.44-.386-.514-.554-.514-.847-.282-.7-.123-.664-.02-.819.024-4.039h1.554a.384.384,0,0,0,.384-.384l0-4.894a.463.463,0,0,0-.444-.465c-.263-.01-.545-.019-.865-.024h-.019c-.07,0-.151,0-.236.009s-.208.012-.314.012l-.072,0c-.018-.712-.012-1.426.017-2.122a4.642,4.642,0,0,1,1.91-3.788,4.265,4.265,0,0,1,2.592-.826h.013q4.72.01,9.442.017a6.187,6.187,0,0,1,1.653.152,4.6,4.6,0,0,1,3.181,3.5,12.333,12.333,0,0,1,.115,2.431c0,.209-.005.423-.006.634h-1.566a.376.376,0,0,0-.376.376v4.993a.383.383,0,0,0,.383.383h1.577c-.022,1.524-.03,3.062-.025,4.575m-4.635,8.83,0,2.681-1.617,0,0-2.681Zm4.977-14.641a.023.023,0,0,1-.023.023h-1.02a.023.023,0,0,1-.023-.023v-3.3a.023.023,0,0,1,.023-.023h1.02a.023.023,0,0,1,.023.023Z" transform="translate(-1016.235 -327.761)" fill="#ef5488"/>
  </g>
</svg>
