<svg id="Component_42_1" data-name="Component 42 – 1" xmlns="http://www.w3.org/2000/svg" xmlns:xlink="http://www.w3.org/1999/xlink" width="105.756" height="84.314" viewBox="0 0 105.756 84.314">
  <defs>
    <clipPath id="clip-path">
      <rect id="Rectangle_1956" data-name="Rectangle 1956" width="105.756" height="84.314" fill="#ef5488"/>
    </clipPath>
  </defs>
  <g id="Group_1488" data-name="Group 1488" clip-path="url(#clip-path)">
    <path id="Path_11541" data-name="Path 11541" d="M176.817,97.2a1.508,1.508,0,0,1,1.073.445l20.035,20.035a1.517,1.517,0,0,1-1.07,2.59h-8.2l-.116,1.58a42.047,42.047,0,0,1-70.349,27.894,1.515,1.515,0,0,1,1.025-2.633,1.511,1.511,0,0,1,.639.141,31.46,31.46,0,0,0,44.559-25.094l.2-1.888h-7.832a1.518,1.518,0,0,1-1.073-2.59l20.035-20.035a1.512,1.512,0,0,1,1.072-.445m0,3.663-16.372,16.372h5.665a1.523,1.523,0,0,1,1.517,1.525,34.373,34.373,0,0,1-8.986,23.18,25.372,25.372,0,0,1-3.16,2.9,32.513,32.513,0,0,1-3.838,2.567,36.1,36.1,0,0,1-4.327,2.107,34.96,34.96,0,0,1-4.625,1.523,29.319,29.319,0,0,1-5.5.84,39.111,39.111,0,0,1-5.62-.115c-1.915-.167-3.821-.439-5.714-.767q-1.065-.184-2.128-.386l-1.062-.2-.545-.105a2.937,2.937,0,0,0-.516-.1,1.019,1.019,0,0,1,.285.13c.1.048.21.092.312.143s.2.108.3.163c.234.132.465.27.695.409.587.354,1.169.717,1.756,1.071a43.619,43.619,0,0,0,3.986,2.167,45.479,45.479,0,0,0,8.543,2.683,39.989,39.989,0,0,0,9.12.8,39.056,39.056,0,0,0,39.012-39.019,1.515,1.515,0,0,1,1.517-1.511h6.06Z" transform="translate(-92.614 -76.485)" fill="#ef5488"/>
    <path id="Path_11542" data-name="Path 11542" d="M21.554,63.6a1.508,1.508,0,0,1-1.073-.445L.446,43.119a1.517,1.517,0,0,1,1.07-2.59h8.2l.116-1.58A42.047,42.047,0,0,1,80.183,11.054a1.515,1.515,0,0,1-1.025,2.633,1.511,1.511,0,0,1-.639-.141A31.46,31.46,0,0,0,33.96,38.64l-.2,1.888h7.832a1.518,1.518,0,0,1,1.073,2.59L22.626,63.154a1.512,1.512,0,0,1-1.072.445m0-3.663L37.926,43.564H32.26a1.523,1.523,0,0,1-1.517-1.525,34.373,34.373,0,0,1,8.986-23.18,25.368,25.368,0,0,1,3.16-2.9,32.513,32.513,0,0,1,3.838-2.567,36.106,36.106,0,0,1,4.327-2.107A34.959,34.959,0,0,1,55.68,9.759a29.315,29.315,0,0,1,5.5-.84,39.11,39.11,0,0,1,5.62.115c1.915.167,3.82.439,5.714.767q1.065.184,2.128.386l1.062.2.545.105a2.937,2.937,0,0,0,.516.1,1.018,1.018,0,0,1-.285-.13c-.1-.048-.21-.092-.312-.143s-.2-.108-.3-.163c-.234-.132-.465-.27-.695-.409C74.587,9.4,74,9.034,73.418,8.681a43.621,43.621,0,0,0-3.986-2.167,45.479,45.479,0,0,0-8.543-2.683,39.989,39.989,0,0,0-9.12-.8A39.056,39.056,0,0,0,12.756,42.053a1.515,1.515,0,0,1-1.517,1.511H5.179Z" transform="translate(0 0.001)" fill="#ef5488"/>
  </g>
</svg>
