<svg id="Component_41_1" data-name="Component 41 – 1" xmlns="http://www.w3.org/2000/svg" width="99.885" height="87.543" viewBox="0 0 99.885 87.543">
  <path id="Path_11530" data-name="Path 11530" d="M89.107,73.481H86.674a12.055,12.055,0,1,0-12.355,0H71.886a13.667,13.667,0,0,0-5.719,1.259,13.113,13.113,0,0,0-5.623-1.259H58.88A11.163,11.163,0,0,0,62.808,58.73a27,27,0,1,0-19.746.031A11.156,11.156,0,0,0,47,73.481H45.341a13.15,13.15,0,0,0-5.625,1.257A13.689,13.689,0,0,0,34,73.481H31.565a12.055,12.055,0,1,0-12.355,0H16.777A13.793,13.793,0,0,0,3,87.259v6.889H47.776V92.425H58.109v1.722h44.776V87.259A13.793,13.793,0,0,0,89.107,73.481ZM71.886,63.149A8.611,8.611,0,1,1,80.5,71.759,8.611,8.611,0,0,1,71.886,63.149Zm-9.775-7.815a25.7,25.7,0,0,0,3.518-6.463h5.265a23.7,23.7,0,0,1-8.783,6.463Zm11.218-9.908h-6.61A44.925,44.925,0,0,0,68.183,35.3h8.275a23.421,23.421,0,0,1-3.129,10.13Zm0-23.693a23.421,23.421,0,0,1,3.133,10.125H68.2a44.926,44.926,0,0,0-1.476-10.119Zm-2.435-3.444H65.629a25.7,25.7,0,0,0-3.518-6.463,23.7,23.7,0,0,1,8.783,6.468Zm-16.23-8.02c2.838.861,5.382,3.813,7.211,8.025H54.664Zm0,11.469H63.12a41.063,41.063,0,0,1,1.626,10.125H54.664Zm0,13.569H64.746A41.063,41.063,0,0,1,63.12,45.431H54.664Zm7.211,13.569a19.221,19.221,0,0,1-3.4,5.414,11.082,11.082,0,0,0-3.809-1.328V48.875ZM47.409,54.293a19.288,19.288,0,0,1-3.4-5.418H51.22v4.087A11.079,11.079,0,0,0,47.406,54.3ZM51.22,31.862H41.139a41.063,41.063,0,0,1,1.626-10.124H51.22Zm0,3.444V45.431H42.764a41.063,41.063,0,0,1-1.626-10.124Zm0-25.038v8.025H44.009C45.838,14.081,48.382,11.135,51.22,10.268ZM43.774,11.83a25.7,25.7,0,0,0-3.518,6.463H34.991a23.7,23.7,0,0,1,8.783-6.463ZM32.555,21.738h6.61A44.926,44.926,0,0,0,37.7,31.862H29.435a23.421,23.421,0,0,1,3.121-10.125Zm0,23.693a23.421,23.421,0,0,1-3.133-10.125H37.7a44.925,44.925,0,0,0,1.467,10.125Zm2.435,3.444h5.265a25.7,25.7,0,0,0,3.518,6.458,23.7,23.7,0,0,1-8.783-6.458ZM52.942,56.26a7.75,7.75,0,1,1-7.75,7.75,7.75,7.75,0,0,1,7.75-7.75ZM16.777,63.149a8.611,8.611,0,1,1,8.611,8.611A8.611,8.611,0,0,1,16.777,63.149ZM44.332,90.7H6.444V87.259A10.343,10.343,0,0,1,16.777,76.926H34A10.343,10.343,0,0,1,44.332,87.259Zm3.444-1.722V87.259a13.726,13.726,0,0,0-4.44-10.1,9.483,9.483,0,0,1,2-.231h15.2a9.483,9.483,0,0,1,2,.231,13.726,13.726,0,0,0-4.44,10.1v1.722ZM99.44,90.7H61.553V87.259A10.343,10.343,0,0,1,71.886,76.926H89.107A10.343,10.343,0,0,1,99.44,87.259Z" transform="translate(-3 -6.604)" fill="#ef5488"/>
</svg>
