<svg id="Battle" xmlns="http://www.w3.org/2000/svg" width="54" height="54.001" viewBox="0 0 54 54.001">
  <rect id="Rectangle_1964" data-name="Rectangle 1964" width="54" height="54" transform="translate(0 0)" fill="none"/>
  <path id="Path_10152" data-name="Path 10152" d="M457.578,358.295l-.49-.138-.43,1.524.49.138a2.384,2.384,0,0,1,1.73,2.286v4.623h-2.85v-2.9h-1.584v10.557h1.584v-6.07h2.85v6.07h1.584V362.105a3.973,3.973,0,0,0-2.884-3.81Zm0,0" transform="translate(-406.463 -320.382)" fill="#ef5488"/>
  <path id="Path_10153" data-name="Path 10153" d="M45.266,223.259l3.405.96.43-1.524-3.34-.941v-2.1a5.539,5.539,0,0,0,2.431-4.582v-2.322a5.548,5.548,0,0,0-11.1,0v2.322a5.539,5.539,0,0,0,2.431,4.582v2.1l-5.355,1.51a3.977,3.977,0,0,0-2.834,3.162l-1.217-.343v-2.1a5.538,5.538,0,0,0,2.431-4.582v-2.322a5.548,5.548,0,0,0-11.1,0V219.4a5.538,5.538,0,0,0,2.431,4.582v2.1l-3.759,1.059a3.968,3.968,0,0,0-2.254-1.875l-4.561-1.483v-.744h1.222a3.966,3.966,0,0,0,3.963-3.959v-3.7A8.2,8.2,0,0,0,10.3,207.2h-.079a8.141,8.141,0,0,0-5.173,1.932l1.026,1.207a6.556,6.556,0,0,1,4.165-1.556H10.3a6.61,6.61,0,0,1,6.607,6.6v3.7a2.379,2.379,0,0,1-2.378,2.376H13.86a5,5,0,0,0,1.465-3.537,4.283,4.283,0,0,0-4.28-4.276H5.285v4.276a5,5,0,0,0,1.465,3.537H6.077A2.379,2.379,0,0,1,3.7,219.081v-3.6a6.676,6.676,0,0,1,1.4-4.113L3.844,210.4a8.248,8.248,0,0,0-1.731,5.08v3.6a3.965,3.965,0,0,0,3.963,3.959h.982v.751L2.7,225.256A3.956,3.956,0,0,0,0,229.008V239.35H1.586v-3.959H3.594v3.959H5.179v-7.812H3.594v2.27H1.586v-4.8a2.373,2.373,0,0,1,1.62-2.251l1.806-.607,5.335,4.567,4.7-4.7,2.334.759a2.378,2.378,0,0,1,1.153.817l-.005,0a3.974,3.974,0,0,0-2.887,3.81v7.948h1.585v-1.742h2.854v1.742h1.585v-6.123H20.081v2.8H17.227V231.4a2.384,2.384,0,0,1,1.733-2.286l5.422-1.528a3.558,3.558,0,0,0,5.243,0l5.422,1.527a2.385,2.385,0,0,1,1.732,2.286v4.623H33.925v-2.8H32.34v6.123h1.585v-1.742h2.853v1.742h1.585V231.4a3.974,3.974,0,0,0-2.887-3.81l-2.6-.732a2.385,2.385,0,0,1,1.723-2.072l5.421-1.528a3.557,3.557,0,0,0,5.243,0Zm-38.4-5.34v-2.692h4.174a2.7,2.7,0,0,1,2.7,2.692,3.435,3.435,0,0,1-6.869,0Zm3.393,10.64-3.5-3,1.883-.633v-2.277a5.007,5.007,0,0,0,3.081.077v2.206l1.632.53ZM27,213.116a3.965,3.965,0,0,1,3.963,3.959v.882l-1.667-2.2H23.267A3.969,3.969,0,0,1,27,213.116Zm1.533,13.31a1.973,1.973,0,0,1-3.065,0v-1.7a5.527,5.527,0,0,0,3.065,0ZM27,223.356A3.965,3.965,0,0,1,23.04,219.4v-2.059h5.471l2.324,3.07A3.969,3.969,0,0,1,27,223.356Zm15.641-14.569a3.965,3.965,0,0,1,3.963,3.959v.882l-1.667-2.2H38.909a3.969,3.969,0,0,1,3.736-2.639Zm-3.963,6.281V213.01h5.471l2.324,3.07a3.964,3.964,0,0,1-7.795-1.011Zm5.5,7.029a1.973,1.973,0,0,1-3.065,0v-1.7a5.516,5.516,0,0,0,3.065,0Zm0,0" transform="translate(0 -185.349)" fill="#ef5488"/>
  <path id="Path_10154" data-name="Path 10154" d="M47.59,0V1.584h4.824V12.669H47.976v3.773l-8.12-3.773h-1.5v-5.7h-5.5V1.584h13.14V0H31.28V6.968H22.72V0H16.449V1.584h4.686V6.968h-5.5v5.7h-1.5l-8.12,3.773V12.669H1.585V1.584H14.864V0H0V14.252H4.438v4.672l10.056-4.672H15.64V21.22h8.226l3.851,1.789.668-1.436-4.169-1.937H17.225V8.551h19.55V19.636H32.337v3.773l-2.514-1.168-.668,1.436,4.768,2.215V21.22H38.36V14.252h1.146l10.056,4.672V14.252H54V0Zm0,0" transform="translate(0 0)" fill="#ef5488"/>
  <path id="Path_10155" data-name="Path 10155" d="M231.654,96.094h-3.431v7.918h3.431a2.374,2.374,0,0,0,1.769-3.959,2.374,2.374,0,0,0-1.769-3.959Zm0,6.334h-1.847v-1.584h1.847a.792.792,0,0,1,0,1.584Zm0-3.167h-1.847V97.677h1.847a.792.792,0,0,1,0,1.584Zm0,0" transform="translate(-204.126 -85.959)" fill="#ef5488"/>
  <path id="Path_10156" data-name="Path 10156" d="M390.383,32.934v2.111a2.9,2.9,0,1,0,5.806,0h-1.584a1.32,1.32,0,1,1-2.639,0V32.934a1.32,1.32,0,0,1,2.639,0h1.584a2.9,2.9,0,0,0-5.806,0Zm0,0" transform="translate(-349.157 -26.864)" fill="#ef5488"/>
  <path id="Path_10157" data-name="Path 10157" d="M70.872,38V32.935a2.9,2.9,0,0,0-5.806,0V38H66.65V36.577h2.64V38ZM66.65,34.993V32.935a1.32,1.32,0,0,1,2.64,0v2.059Zm0,0" transform="translate(-58.204 -26.864)" fill="#ef5488"/>
  <path id="Path_10158" data-name="Path 10158" d="M99.545,239.81l1.114-1.125a4.985,4.985,0,0,0-3.528-1.455h-.053l.024,1.583h.029A3.411,3.411,0,0,1,99.545,239.81Zm0,0" transform="translate(-86.829 -212.21)" fill="#ef5488"/>
  <path id="Path_10159" data-name="Path 10159" d="M424.414,427.418H426v4.223h-1.584Zm0,0" transform="translate(-379.599 -382.339)" fill="#ef5488"/>
  <path id="Path_10160" data-name="Path 10160" d="M424.414,482.473H426v1.583h-1.584Zm0,0" transform="translate(-379.599 -431.587)" fill="#ef5488"/>
  <path id="Path_10161" data-name="Path 10161" d="M276.488,417.6l-2.23-.63.43-1.524,2.23.629Zm0,0" transform="translate(-245.303 -371.629)" fill="#ef5488"/>
  <path id="Path_10162" data-name="Path 10162" d="M310.242,425.461l1.524.43-.43,1.524-1.524-.43Zm0,0" transform="translate(-277.104 -380.588)" fill="#ef5488"/>
</svg>
