<svg id="level" xmlns="http://www.w3.org/2000/svg" width="54.001" height="54" viewBox="0 0 54.001 54">
  <rect id="Rectangle_1965" data-name="Rectangle 1965" width="54" height="53.665" transform="translate(0 0)" fill="none"/>
  <path id="Path_10163" data-name="Path 10163" d="M2.945,207.464H8.014a2.948,2.948,0,0,0,2.945-2.945v-5.19a.791.791,0,0,0-1.582,0v5.19a1.364,1.364,0,0,1-1.363,1.363H2.945a1.364,1.364,0,0,1-1.363-1.363v-10.6a1.364,1.364,0,0,1,1.363-1.363H8.014a1.364,1.364,0,0,1,1.363,1.363v1.723a.791.791,0,1,0,1.582,0v-1.723a2.948,2.948,0,0,0-2.945-2.945H2.945A2.948,2.948,0,0,0,0,193.915v10.6a2.948,2.948,0,0,0,2.945,2.945Z" transform="translate(0 -170.758)" fill="#ef5488"/>
  <path id="Path_10164" data-name="Path 10164" d="M136.672,147.9h5.069a2.948,2.948,0,0,0,2.944-2.944V127.332a2.948,2.948,0,0,0-2.944-2.944h-5.069a2.948,2.948,0,0,0-2.944,2.944V144.96A2.948,2.948,0,0,0,136.672,147.9Zm-1.362-20.572a1.364,1.364,0,0,1,1.362-1.362h5.069a1.364,1.364,0,0,1,1.362,1.362V144.96a1.364,1.364,0,0,1-1.362,1.362h-5.069a1.364,1.364,0,0,1-1.362-1.362Z" transform="translate(-119.624 -111.404)" fill="#ef5488"/>
  <path id="Path_10165" data-name="Path 10165" d="M270.4,97.93h5.069a2.948,2.948,0,0,0,2.944-2.944V71.465a2.948,2.948,0,0,0-2.944-2.944H270.4a2.948,2.948,0,0,0-2.944,2.944v23.52A2.948,2.948,0,0,0,270.4,97.93Zm-1.362-26.464A1.364,1.364,0,0,1,270.4,70.1h5.069a1.364,1.364,0,0,1,1.362,1.362v23.52a1.364,1.364,0,0,1-1.362,1.362H270.4a1.364,1.364,0,0,1-1.362-1.362Z" transform="translate(-239.248 -62.208)" fill="#ef5488"/>
  <path id="Path_10166" data-name="Path 10166" d="M416.114,8.66h-5.069A2.948,2.948,0,0,0,408.1,11.6V15.09a.791.791,0,1,0,1.582,0V11.6a1.364,1.364,0,0,1,1.363-1.363h5.069a1.364,1.364,0,0,1,1.363,1.363V41.438a1.364,1.364,0,0,1-1.363,1.363h-5.069a1.364,1.364,0,0,1-1.363-1.363V18.782a.791.791,0,1,0-1.582,0V41.438a2.948,2.948,0,0,0,2.945,2.945h5.069a2.948,2.948,0,0,0,2.945-2.945V11.6a2.948,2.948,0,0,0-2.945-2.945Z" transform="translate(-365.058 -8.66)" fill="#ef5488"/>
  <path id="Path_10167" data-name="Path 10167" d="M51,395.4H39.167a5.837,5.837,0,0,0-10.02,0H3a3,3,0,1,0,0,6H29.145a5.829,5.829,0,0,0,.632.864.791.791,0,1,0,1.185-1.048,4.259,4.259,0,1,1,3.195,1.443,4.364,4.364,0,0,1-.473-.026.791.791,0,1,0-.172,1.573,5.954,5.954,0,0,0,.645.035,5.843,5.843,0,0,0,5.009-2.841H51a3,3,0,0,0,0-6ZM3,399.821A1.418,1.418,0,0,1,2,397.4a1.406,1.406,0,0,1,1-.415H28.49a5.821,5.821,0,0,0,0,2.837Zm49-.415a1.405,1.405,0,0,1-1,.415H39.823a5.836,5.836,0,0,0,0-2.837H51a1.418,1.418,0,0,1,1,2.422Z" transform="translate(0 -350.244)" fill="#ef5488"/>
</svg>
