<svg id="life_line" data-name="life line" xmlns="http://www.w3.org/2000/svg" width="54" height="54" viewBox="0 0 54 54">
  <rect id="Rectangle_1966" data-name="Rectangle 1966" width="54" height="54" fill="none"/>
  <path id="Path_10144" data-name="Path 10144" d="M37.118,67.2H34.167L30.6,49.254a.919.919,0,0,0-.94-.743.935.935,0,0,0-.89.816L23.886,86.311l-6.278-27.7a.929.929,0,0,0-.885-.727.942.942,0,0,0-.914.69L10.985,76.406,7.362,66.885a.945.945,0,0,0-.866-.618H.928a.936.936,0,0,0,0,1.872h4.93l4.411,11.586a.938.938,0,0,0,.913.608.925.925,0,0,0,.848-.684l4.593-16.985,6.6,29.119a.93.93,0,0,0,.9.728h.043a.931.931,0,0,0,.877-.811l4.831-36.547L32.5,68.341a.914.914,0,0,0,.91.734h3.712a.936.936,0,0,0,0-1.872Z" transform="translate(0 -43.511)" fill="#ef5488"/>
  <path id="Path_10145" data-name="Path 10145" d="M394.044,224.8h-4.692a.938.938,0,1,0,0,1.877h4.692a.938.938,0,1,0,0-1.877Z" transform="translate(-347.552 -201.113)" fill="#ef5488"/>
  <path id="Path_10146" data-name="Path 10146" d="M471.616,224.8H468.8a.938.938,0,0,0,0,1.877h2.815a.938.938,0,1,0,0-1.877Z" transform="translate(-418.555 -201.113)" fill="#ef5488"/>
</svg>
