<svg id="team-work_6115377" xmlns="http://www.w3.org/2000/svg" width="103.341" height="100.401" viewBox="0 0 103.341 100.401">
  <path id="Path_11513" data-name="Path 11513" d="M56.026,85.771a8.446,8.446,0,0,1-8.437-8.437,2.124,2.124,0,0,1,.062-.509l5.971-24.063L41.755,44.829a8.437,8.437,0,1,1,7.293-15.217,2.052,2.052,0,0,1,.224.122L66.046,40.217A8.471,8.471,0,0,1,70.791,47.8a2.047,2.047,0,0,1-.026.328L68.248,64.1a2.109,2.109,0,1,1-4.167-.655l2.488-15.787a4.236,4.236,0,0,0-2.432-3.675,2.158,2.158,0,0,1-.226-.124L47.157,33.386A4.219,4.219,0,1,0,43.7,41.081a2.073,2.073,0,0,1,.279.158L57.2,50.08a2.109,2.109,0,0,1,.875,2.262l-6.26,25.225a4.219,4.219,0,0,0,8.431-.233,2.1,2.1,0,0,1,.077-.564L62.309,69.6a2.109,2.109,0,0,1,4.064,1.129L64.458,77.64a8.448,8.448,0,0,1-8.432,8.13Z" transform="translate(25.176 14.63)" fill="#ef5488"/>
  <path id="Path_11514" data-name="Path 11514" d="M57.148,69.21a8.313,8.313,0,0,1-5.976-2.486,2.111,2.111,0,0,1-.487-.783l-2.268-6.509a2.109,2.109,0,0,1,4-1.327l2.072,5.949a4.312,4.312,0,0,0,5.622-.288,4.223,4.223,0,0,0,.012-5.973,2.114,2.114,0,0,1-.272-.334L52.348,46.027a2.109,2.109,0,0,1,3.527-2.315l7.4,11.263a8.444,8.444,0,0,1-.162,11.762,8.3,8.3,0,0,1-5.963,2.474Z" transform="translate(37.764 30.136)" fill="#ef5488"/>
  <path id="Path_11515" data-name="Path 11515" d="M25.765,85.77a8.448,8.448,0,0,1-8.432-8.13l-1.916-6.909A2.109,2.109,0,0,1,19.481,69.6l1.988,7.166a2.1,2.1,0,0,1,.077.564,4.219,4.219,0,0,0,8.431.233l-6.26-25.225a2.109,2.109,0,0,1,.875-2.262l13.222-8.841a2.072,2.072,0,0,1,.279-.159,4.219,4.219,0,1,0-3.461-7.695L17.879,43.857a2.157,2.157,0,0,1-.226.124,4.236,4.236,0,0,0-2.432,3.675L17.71,63.442a2.109,2.109,0,0,1-4.167.655L11.026,48.131A2.046,2.046,0,0,1,11,47.8a8.471,8.471,0,0,1,4.745-7.586L32.518,29.734a2.051,2.051,0,0,1,.225-.122A8.437,8.437,0,1,1,40.036,44.83L28.169,52.762,34.14,76.825a2.123,2.123,0,0,1,.062.509A8.446,8.446,0,0,1,25.765,85.77Z" transform="translate(-3.623 14.63)" fill="#ef5488"/>
  <path id="Path_11516" data-name="Path 11516" d="M15.934,69.21a8.313,8.313,0,0,1-5.976-2.486,8.44,8.44,0,0,1-.149-11.749l7.4-11.263a2.109,2.109,0,0,1,3.526,2.315L13.225,57.459a2.115,2.115,0,0,1-.272.334,4.219,4.219,0,0,0,0,5.961,4.3,4.3,0,0,0,5.635.3l2.072-5.949a2.109,2.109,0,0,1,4,1.327l-.105.317L22.4,65.941a2.111,2.111,0,0,1-.487.783,8.313,8.313,0,0,1-5.976,2.486Z" transform="translate(-7.503 30.136)" fill="#ef5488"/>
  <path id="Path_11517" data-name="Path 11517" d="M19.546,45.892A10.546,10.546,0,1,1,30.093,35.346,10.546,10.546,0,0,1,19.546,45.892Zm0-16.874a6.328,6.328,0,1,0,6.328,6.328,6.328,6.328,0,0,0-6.328-6.328Z" transform="translate(-5.842 10.213)" fill="#ef5488"/>
  <path id="Path_11518" data-name="Path 11518" d="M55.546,45.892A10.546,10.546,0,1,1,66.093,35.346,10.546,10.546,0,0,1,55.546,45.892Zm0-16.874a6.328,6.328,0,1,0,6.328,6.328,6.328,6.328,0,0,0-6.328-6.328Z" transform="translate(34.092 10.213)" fill="#ef5488"/>
  <path id="Path_11519" data-name="Path 11519" d="M45.983,35.455H29.109a2.11,2.11,0,0,1-2.046-2.621L29.172,24.4a2.11,2.11,0,0,1,2.046-1.6H43.874a2.11,2.11,0,0,1,2.046,1.6l2.109,8.437a2.11,2.11,0,0,1-2.046,2.621ZM31.811,31.237H43.282l-1.055-4.219H32.865Z" transform="translate(14.125 7.995)" fill="#ef5488"/>
  <path id="Path_11520" data-name="Path 11520" d="M39.765,31.892A14.781,14.781,0,0,1,25,17.128V12.909A2.109,2.109,0,0,1,27.109,10.8H52.42a2.109,2.109,0,0,1,2.109,2.109v4.219A14.781,14.781,0,0,1,39.765,31.892ZM29.219,15.018v2.109a10.546,10.546,0,0,0,21.093,0V15.018Z" transform="translate(11.906 -5.316)" fill="#ef5488"/>
  <path id="Path_11521" data-name="Path 11521" d="M33.109,31.455A2.109,2.109,0,0,1,31,29.346V20.909a2.109,2.109,0,0,1,4.219,0v8.437A2.109,2.109,0,0,1,33.109,31.455Z" transform="translate(18.563 3.558)" fill="#ef5488"/>
  <path id="Path_11522" data-name="Path 11522" d="M32.146,24.455H28.328a6.328,6.328,0,0,1,0-12.656h2.109a2.109,2.109,0,0,1,0,4.219H28.328a2.112,2.112,0,0,0-2.109,2.109,2.02,2.02,0,0,0,.607,1.464,2.057,2.057,0,0,0,1.5.646h3.818a2.109,2.109,0,0,1,0,4.219Z" transform="translate(8.579 -4.207)" fill="#ef5488"/>
  <path id="Path_11523" data-name="Path 11523" d="M42.117,24.455H38.3a2.109,2.109,0,1,1,0-4.219h3.818a2.02,2.02,0,0,0,1.464-.607,2.057,2.057,0,0,0,.646-1.5,2.112,2.112,0,0,0-2.109-2.109H40.008a2.109,2.109,0,1,1,0-4.219h2.109a6.328,6.328,0,0,1,0,12.656Z" transform="translate(24.319 -4.207)" fill="#ef5488"/>
  <path id="Path_11524" data-name="Path 11524" d="M54.546,17.518H46.109a2.109,2.109,0,1,1,0-4.219h8.437a2.109,2.109,0,1,1,0,4.219Z" transform="translate(32.983 -2.543)" fill="#ef5488"/>
  <path id="Path_11525" data-name="Path 11525" d="M56.444,24.949a2.1,2.1,0,0,1-.83-.172l-10.335-4.43a2.109,2.109,0,0,1,1.662-3.877L57.276,20.9a2.11,2.11,0,0,1-.832,4.049Z" transform="translate(32.983 0.784)" fill="#ef5488"/>
  <path id="Path_11526" data-name="Path 11526" d="M46.11,16.849a2.11,2.11,0,0,1-.832-4.049L55.613,8.371a2.109,2.109,0,1,1,1.662,3.877L46.94,16.677a2.1,2.1,0,0,1-.83.172Z" transform="translate(32.983 -8.2)" fill="#ef5488"/>
  <path id="Path_11527" data-name="Path 11527" d="M24.546,17.518H16.109a2.109,2.109,0,0,1,0-4.219h8.437a2.109,2.109,0,0,1,0,4.219Z" transform="translate(-0.296 -2.543)" fill="#ef5488"/>
  <path id="Path_11528" data-name="Path 11528" d="M15.21,24.949a2.11,2.11,0,0,1-.832-4.049l10.335-4.43a2.109,2.109,0,0,1,1.662,3.877L16.04,24.777a2.1,2.1,0,0,1-.83.172Z" transform="translate(-1.294 0.784)" fill="#ef5488"/>
  <path id="Path_11529" data-name="Path 11529" d="M25.544,16.849a2.1,2.1,0,0,1-.83-.172L14.378,12.248a2.109,2.109,0,1,1,1.662-3.877L26.376,12.8a2.11,2.11,0,0,1-.832,4.049Z" transform="translate(-1.294 -8.2)" fill="#ef5488"/>
</svg>
