<svg id="leadarbord" xmlns="http://www.w3.org/2000/svg" width="54" height="54" viewBox="0 0 54 54">
  <rect id="Rectangle_1963" data-name="Rectangle 1963" width="54" height="54" fill="none"/>
  <path id="Path_10147" data-name="Path 10147" d="M51.891,207.633h-3.8V191.87a2.169,2.169,0,0,0-2.166-2.166H34.734v-7.565A2.141,2.141,0,0,0,32.6,180H21.4a2.141,2.141,0,0,0-2.138,2.138v4.19H8.045a2.141,2.141,0,0,0-2.138,2.138v19.166h-3.8A2.112,2.112,0,0,0,0,209.742v3.164a2.112,2.112,0,0,0,2.109,2.109H36.14a1.055,1.055,0,0,0,0-2.109H2.109v-3.164H51.891v3.164H44.577a1.055,1.055,0,1,0,0,2.109h7.313A2.112,2.112,0,0,0,54,212.906v-3.164A2.112,2.112,0,0,0,51.891,207.633Zm-5.963-15.82a.057.057,0,0,1,.057.057v15.763H34.734v-15.82Zm-24.523-9.7H32.6a.029.029,0,0,1,.029.029v25.495H21.375V182.138a.029.029,0,0,1,.029-.029ZM8.016,188.466a.029.029,0,0,1,.029-.029H19.266v19.2H8.016Z" transform="translate(0 -161.016)" fill="#ef5488"/>
  <path id="Path_10148" data-name="Path 10148" d="M180.823,10.289l-.41,4.378a1.055,1.055,0,0,0,1.468,1.067l4.037-1.743,4.037,1.743a1.055,1.055,0,0,0,1.468-1.067l-.41-4.378,2.905-3.3a1.055,1.055,0,0,0-.561-1.726l-4.29-.963L186.825.517a1.055,1.055,0,0,0-1.815,0L182.769,4.3l-4.29.963a1.055,1.055,0,0,0-.561,1.726Zm2.852-4.031a1.055,1.055,0,0,0,.676-.491l1.566-2.643,1.566,2.643a1.055,1.055,0,0,0,.676.491l3,.673-2.03,2.306a1.054,1.054,0,0,0-.258.8l.287,3.059-2.821-1.218a1.055,1.055,0,0,0-.836,0l-2.821,1.218.287-3.059a1.054,1.054,0,0,0-.258-.8l-2.03-2.306Z" transform="translate(-158.918)" fill="#ef5488"/>
  <path id="Path_10149" data-name="Path 10149" d="M238.7,222.109h.707V229.3a1.055,1.055,0,1,0,2.109,0v-8.244A1.055,1.055,0,0,0,240.464,220H238.7a1.055,1.055,0,1,0,0,2.109Z" transform="translate(-212.583 -196.797)" fill="#ef5488"/>
  <path id="Path_10150" data-name="Path 10150" d="M104.593,287.811c-.639.008-1.312.014-1.911.016.4-.547.933-1.274,1.608-2.24a6.013,6.013,0,0,0,.98-2.034c.008-.034.014-.069.019-.1l.038-.3a1.048,1.048,0,0,0,.009-.134,3.02,3.02,0,0,0-5.983-.584,1.055,1.055,0,1,0,2.07.407.911.911,0,0,1,1.8.123l-.02.159a4.055,4.055,0,0,1-.642,1.255c-1.214,1.735-1.939,2.683-2.328,3.193-.489.64-.758.993-.582,1.566a1.088,1.088,0,0,0,.707.717,6.231,6.231,0,0,0,1.776.086c.589,0,1.39-.006,2.484-.02a1.055,1.055,0,1,0-.026-2.109Z" transform="translate(-88.856 -250.468)" fill="#ef5488"/>
  <path id="Path_10151" data-name="Path 10151" d="M353.558,315.79a1.055,1.055,0,0,0,1.238-.832,1.055,1.055,0,1,1,1.035,1.26,1.055,1.055,0,1,0,0,2.109,1.055,1.055,0,1,1-1.044,1.2,1.078,1.078,0,0,1-.01-.148,1.055,1.055,0,1,0-2.109,0,3.164,3.164,0,1,0,6.328,0,3.151,3.151,0,0,0-.808-2.109,3.163,3.163,0,1,0-5.46-2.722A1.055,1.055,0,0,0,353.558,315.79Z" transform="translate(-315.472 -279.094)" fill="#ef5488"/>
  <circle id="Ellipse_82" data-name="Ellipse 82" cx="1.055" cy="1.055" r="1.055" transform="translate(39.305 51.891)" fill="#ef5488"/>
</svg>
